HIERARCHY
ROOT hip
{
  OFFSET 0 0 0
  CHANNELS 6 Xposition Yposition Zposition Zrotation Yrotation Xrotation
  JOINT abdomen
  {
    OFFSET 0 20.6881 -0.73152
    CHANNELS 3 Zrotation Xrotation Yrotation
    JOINT chest
    {
      OFFSET 0 11.7043 -0.48768
      CHANNELS 3 Zrotation Xrotation Yrotation
      JOINT neck
      {
        OFFSET 0 22.1894 -2.19456
        CHANNELS 3 Zrotation Xrotation Yrotation
        JOINT head
        {
          OFFSET -0.24384 7.07133 1.2192
          CHANNELS 3 Zrotation Xrotation Yrotation
          JOINT leftEye
          {
            OFFSET 4.14528 8.04674 8.04672
            CHANNELS 3 Zrotation Xrotation Yrotation
            End Site
            {
              OFFSET 1 0 0
            }
          }
          JOINT rightEye
          {
            OFFSET -3.6576 8.04674 8.04672
            CHANNELS 3 Zrotation Xrotation Yrotation
            End Site
            {
              OFFSET 1 0 0
            }
          }
        }
      }
      JOINT rCollar
      {
        OFFSET -2.68224 19.2634 -4.8768
        CHANNELS 3 Zrotation Xrotation Yrotation
        JOINT rShldr
        {
          OFFSET -8.77824 -1.95073 1.46304
          CHANNELS 3 Zrotation Xrotation Yrotation
          JOINT rForeArm
          {
            OFFSET -28.1742 -1.7115 0.48768
            CHANNELS 3 Zrotation Xrotation Yrotation
            JOINT rHand
            {
              OFFSET -22.5879 0.773209 7.07136
              CHANNELS 3 Zrotation Xrotation Yrotation
              JOINT rThumb1
              {
                OFFSET -1.2192 -0.487915 3.41376
                CHANNELS 3 Zrotation Xrotation Yrotation
                JOINT rThumb2
                {
                  OFFSET -3.37035 -0.52449 3.41376
                  CHANNELS 3 Zrotation Xrotation Yrotation
                  End Site
                  {
                    OFFSET -1.78271 -1.18214 1.43049
                  }
                }
              }
              JOINT rIndex1
              {
                OFFSET -7.75947 0.938293 5.60832
                CHANNELS 3 Zrotation Xrotation Yrotation
                JOINT rIndex2
                {
                  OFFSET -2.54057 -0.884171 1.56538
                  CHANNELS 3 Zrotation Xrotation Yrotation
                  End Site
                  {
                    OFFSET -1.62519 -0.234802 1.16502
                  }
                }
              }
              JOINT rMid1
              {
                OFFSET -8.24714 1.18213 3.41376
                CHANNELS 3 Zrotation Xrotation Yrotation
                JOINT rMid2
                {
                  OFFSET -3.10165 -0.590103 1.0647
                  CHANNELS 3 Zrotation Xrotation Yrotation
                  End Site
                  {
                    OFFSET -2.48547 -0.328903 0.83742
                  }
                }
              }
              JOINT rRing1
              {
                OFFSET -8.82822 0.546677 1.51678
                CHANNELS 3 Zrotation Xrotation Yrotation
                JOINT rRing2
                {
                  OFFSET -2.60934 -0.819778 -0.0198488
                  CHANNELS 3 Zrotation Xrotation Yrotation
                  End Site
                  {
                    OFFSET -2.33842 -0.294052 0.168128
                  }
                }
              }
              JOINT rPinky1
              {
                OFFSET -8.27202 -0.0477905 -0.4584
                CHANNELS 3 Zrotation Xrotation Yrotation
                JOINT rPinky2
                {
                  OFFSET -1.82734 -0.647385 -0.700984
                  CHANNELS 3 Zrotation Xrotation Yrotation
                  End Site
                  {
                    OFFSET -1.69225 -0.51767 -0.607171
                  }
                }
              }
            }
          }
        }
      }
      JOINT lCollar
      {
        OFFSET 2.68224 19.2634 -4.8768
        CHANNELS 3 Zrotation Xrotation Yrotation
        JOINT lShldr
        {
          OFFSET 8.77824 -1.95073 1.46304
          CHANNELS 3 Zrotation Xrotation Yrotation
          JOINT lForeArm
          {
            OFFSET 28.1742 -1.7115 0.48768
            CHANNELS 3 Zrotation Xrotation Yrotation
            JOINT lHand
            {
              OFFSET 22.5879 0.773209 7.07136
              CHANNELS 3 Zrotation Xrotation Yrotation
              JOINT lThumb1
              {
                OFFSET 1.2192 -0.487915 3.41376
                CHANNELS 3 Zrotation Xrotation Yrotation
                JOINT lThumb2
                {
                  OFFSET 3.37035 -0.52449 3.41376
                  CHANNELS 3 Zrotation Xrotation Yrotation
                  End Site
                  {
                    OFFSET 1.78271 -1.18214 1.43049
                  }
                }
              }
              JOINT lIndex1
              {
                OFFSET 7.75947 0.938293 5.60832
                CHANNELS 3 Zrotation Xrotation Yrotation
                JOINT lIndex2
                {
                  OFFSET 2.54057 -0.884171 1.56538
                  CHANNELS 3 Zrotation Xrotation Yrotation
                  End Site
                  {
                    OFFSET 1.62519 -0.234802 1.16502
                  }
                }
              }
              JOINT lMid1
              {
                OFFSET 8.24714 1.18213 3.41376
                CHANNELS 3 Zrotation Xrotation Yrotation
                JOINT lMid2
                {
                  OFFSET 3.10165 -0.590103 1.0647
                  CHANNELS 3 Zrotation Xrotation Yrotation
                  End Site
                  {
                    OFFSET 2.48547 -0.328903 0.83742
                  }
                }
              }
              JOINT lRing1
              {
                OFFSET 8.82822 0.546677 1.51678
                CHANNELS 3 Zrotation Xrotation Yrotation
                JOINT lRing2
                {
                  OFFSET 2.60934 -0.819778 -0.0198488
                  CHANNELS 3 Zrotation Xrotation Yrotation
                  End Site
                  {
                    OFFSET 2.33842 -0.294052 0.168128
                  }
                }
              }
              JOINT lPinky1
              {
                OFFSET 8.27202 -0.0477905 -0.4584
                CHANNELS 3 Zrotation Xrotation Yrotation
                JOINT lPinky2
                {
                  OFFSET 1.82734 -0.647385 -0.700984
                  CHANNELS 3 Zrotation Xrotation Yrotation
                  End Site
                  {
                    OFFSET 1.69225 -0.51767 -0.607171
                  }
                }
              }
            }
          }
        }
      }
    }
  }
  JOINT rButtock
  {
    OFFSET -8.77824 4.35084 1.2192
    CHANNELS 3 Zrotation Xrotation Yrotation
    JOINT rThigh
    {
      OFFSET 0 -1.70687 -2.19456
      CHANNELS 3 Zrotation Xrotation Yrotation
      JOINT rShin
      {
        OFFSET 0 -36.8199 0.73152
        CHANNELS 3 Zrotation Xrotation Yrotation
        JOINT rFoot
        {
          OFFSET 0.73152 -45.1104 -5.12064
          CHANNELS 3 Zrotation Xrotation Yrotation
          End Site
          {
            OFFSET -1.1221 -3.69964 12.103
          }
        }
      }
    }
  }
  JOINT lButtock
  {
    OFFSET 8.77824 4.35084 1.2192
    CHANNELS 3 Zrotation Xrotation Yrotation
    JOINT lThigh
    {
      OFFSET 0 -1.70687 -2.19456
      CHANNELS 3 Zrotation Xrotation Yrotation
      JOINT lShin
      {
        OFFSET 0 -36.8199 0.73152
        CHANNELS 3 Zrotation Xrotation Yrotation
        JOINT lFoot
        {
          OFFSET -0.73152 -45.1104 -5.12064
          CHANNELS 3 Zrotation Xrotation Yrotation
          End Site
          {
            OFFSET 1.1221 -3.69964 12.103
          }
        }
      }
    }
  }
}
MOTION
Frames:	7
Frame Time:	0.00833333
58.7136 85.5069 -210.762 0.0 0.0 0.0 2.23594 -0.000458369 0.0604484 0.615865 0.00897684 0.106602 -3.328e-14 0.0 1.73937e-16 -1.00082e-13 3.18055e-15 3.47873e-16 -0.0 0.0 0.0 -0.0 0.0 0.0 -1.67492e-14 5.70729e-17 1.98785e-16 -3.4881e-13 5.34234e-16 1.19271e-15 -6.0758e-12 1.85247e-12 8.90555e-14 -6.94708e-11 -1.60297e-12 1.33583e-13 -1.63894e-10 5.47987e-13 4.96167e-13 -2.83054e-10 9.47805e-13 8.48413e-13 -1.63888e-10 5.49441e-13 4.80264e-13 7.73091 5.47488 0.417314 -1.63893e-10 5.48049e-13 4.89805e-13 2.90554 0.965183 0.102902 -1.63881e-10 5.48348e-13 4.82649e-13 10.2786 0.731801 0.0259123 -1.63895e-10 5.47851e-13 4.83444e-13 2.22167 -0.733487 -0.20892 -1.68465e-14 5.47434e-17 -9.93923e-17 -3.52303e-13 1.14301e-15 -7.95139e-16 -6.05677e-12 -1.77376e-12 6.36111e-14 -6.94476e-11 2.04835e-12 1.39944e-13 -1.63808e-10 5.95271e-13 4.67542e-13 -2.82888e-10 1.02732e-12 8.30125e-13 -1.63814e-10 5.96354e-13 4.80264e-13 -7.73091 5.47488 -0.417314 -1.63808e-10 5.95559e-13 4.73903e-13 -2.90554 0.965183 -0.102902 -1.63813e-10 5.95758e-13 4.73903e-13 -10.2786 0.731801 -0.0259123 -1.6381e-10 5.97149e-13 4.73903e-13 -2.22167 -0.733487 0.20892 -2.03217e-16 0.0 -3.88251e-19 2.21029 -7.80166 -0.224151 0.00522895 8.55962 0.135943 -0.54739 -0.766554 0.0460826 2.03217e-16 0.0 3.88251e-19 1.18446 -1.92859 -0.00254997 0.00908715 -2.07858 0.074947 0.513195 3.99847 -0.140489
58.3832 84.9595 -212.302 -0.7492 -3.529 5.0195 1.7747 -2.06438 -0.172371 0.526192 0.795607 0.04548 -1.25779 5.29154 -2.69273 4.76943 -7.88103 -4.34885 -0.0 0.0 0.0 -0.0 0.0 0.0 -3.08243e-14 -8.64863e-14 -2.70572e-15 21.4532 8.12544 -1.25652 -4.44871 -2.06904 6.89601 0.00427073 -1.47617 -0.207227 -2.56224e-12 -2.24418e-10 4.73687e-10 -5.29393e-12 -3.85442e-10 8.19782e-10 -2.55681e-12 -2.24417e-10 4.73673e-10 7.73091 5.47488 0.417314 -2.56253e-12 -2.24417e-10 4.73685e-10 2.90554 0.965183 0.102902 -2.55237e-12 -2.24418e-10 4.73676e-10 10.2786 0.731801 0.0259123 -2.56567e-12 -2.24417e-10 4.7368e-10 2.22167 -0.733487 -0.20892 -3.09175e-14 -8.64885e-14 -2.94838e-15 -20.6202 9.14174 -1.28276 3.43886 -1.43398 -5.50266 -0.0875133 -6.59907 0.905683 4.02832e-11 5.06289e-11 -7.08315e-10 8.14161e-11 1.01546e-10 -1.22158e-09 4.02781e-11 5.06305e-11 -7.083e-10 -7.73091 5.47488 -0.417314 4.02835e-11 5.06283e-11 -7.08311e-10 -2.90554 0.965183 -0.102902 4.0278e-11 5.06283e-11 -7.08311e-10 -10.2786 0.731801 -0.0259123 4.02837e-11 5.06293e-11 -7.08313e-10 -2.22167 -0.733487 0.20892 -2.03217e-16 0.0 -3.88251e-19 2.68803 -6.97882 2.08812 0.00709722 8.69502 0.149303 -1.07319 -6.06999 -5.74446 2.03217e-16 0.0 3.88251e-19 2.49355 -2.02186 -0.0995593 0.00713074 -1.40818 0.0395213 0.438124 2.46155 -1.35878
58.3589 84.935 -212.351 -0.9105 -3.4563 5.249 1.26992 -4.24635 -0.416626 0.431854 1.62914 -0.0183695 -2.03184 10.8433 -5.61949 8.46241 -16.0498 -9.23272 -0.0 0.0 0.0 -0.0 0.0 0.0 -4.6604e-14 -1.80092e-13 -6.99163e-15 44.5368 16.694 -2.66941 -8.61229 -4.15492 14.2117 -0.00299961 -3.06875 -0.431273 1.82138e-10 -4.73542e-10 9.83371e-10 3.12744e-10 -8.13362e-10 1.7019e-09 1.82143e-10 -4.73543e-10 9.83359e-10 7.73091 5.47488 0.417314 1.82136e-10 -4.73541e-10 9.83374e-10 2.90554 0.965183 0.102902 1.82144e-10 -4.73543e-10 9.83364e-10 10.2786 0.731801 0.0259123 1.82132e-10 -4.73541e-10 9.83371e-10 2.22167 -0.733487 -0.20892 -4.66912e-14 -1.80094e-13 -7.17488e-15 -41.9522 18.7663 -2.75125 6.77949 -2.90783 -11.336 0.0538163 -13.6418 1.91424 2.68877e-10 1.21449e-10 -1.48112e-09 4.89194e-10 2.39403e-10 -2.55432e-09 2.68873e-10 1.21451e-10 -1.4811e-09 -7.73091 5.47488 -0.417314 2.68877e-10 1.21447e-10 -1.48112e-09 -2.90554 0.965183 -0.102902 2.68872e-10 1.21447e-10 -1.48112e-09 -10.2786 0.731801 -0.0259123 2.6888e-10 1.21448e-10 -1.48113e-09 -2.22167 -0.733487 0.20892 -2.03217e-16 0.0 -3.88251e-19 3.12425 -6.10089 4.52727 0.00901191 8.83905 0.163457 -2.8084 -11.4871 -12.0467 2.03217e-16 0.0 3.88251e-19 3.88092 -2.1222 -0.201407 0.00586385 -0.69786 0.00209685 0.287715 0.836352 -2.64355
58.3357 84.9335 -212.355 -1.0344 -3.4274 5.2701 0.801655 -6.19185 -0.641417 0.351883 2.36887 -0.0768437 -2.23753 15.7316 -8.35897 10.4909 -23.0747 -14.0691 -0.0 0.0 0.0 -0.0 0.0 0.0 -5.89745e-14 -2.59573e-13 -8.51474e-15 65.5163 24.327 -4.09593 -11.8815 -5.84822 20.7876 -0.0193029 -4.42829 -0.623335 3.20101e-10 -6.74349e-10 1.42007e-09 5.50226e-10 -1.15822e-09 2.45765e-09 3.20105e-10 -6.74351e-10 1.42006e-09 7.73091 5.47488 0.417314 3.20098e-10 -6.74347e-10 1.42007e-09 2.90554 0.965183 0.102902 3.20104e-10 -6.7435e-10 1.42006e-09 10.2786 0.731801 0.0259123 3.20093e-10 -6.74348e-10 1.42007e-09 2.22167 -0.733487 -0.20892 -5.90593e-14 -2.59575e-13 -8.64636e-15 -60.5024 27.3666 -4.27903 9.50116 -4.14351 -16.5473 0.396435 -19.7768 2.86836 4.48467e-10 1.50696e-10 -2.12588e-09 8.10024e-10 3.02582e-10 -3.66639e-09 4.48463e-10 1.50699e-10 -2.12586e-09 -7.73091 5.47488 -0.417314 4.48467e-10 1.50694e-10 -2.12588e-09 -2.90554 0.965183 -0.102902 4.48461e-10 1.50694e-10 -2.12588e-09 -10.2786 0.731801 -0.0259123 4.48472e-10 1.50694e-10 -2.12589e-09 -2.22167 -0.733487 0.20892 -2.03217e-16 0.0 -3.88251e-19 3.44325 -5.31057 6.69092 0.010642 8.9658 0.176054 -5.39494 -15.995 -17.9455 2.03217e-16 0.0 3.88251e-19 5.11079 -2.20838 -0.293613 0.00570413 -0.0673784 -0.0312674 0.0921066 -0.608895 -3.79249
58.3601 84.9393 -212.341 -0.9235 -3.4031 5.2041 0.459453 -7.5465 -0.814347 0.304355 2.87408 -0.121793 -2.12325 19.0982 -10.3631 11.1376 -27.7826 -17.8142 -0.0 0.0 0.0 -0.0 0.0 0.0 -6.2822e-14 -3.03743e-13 -3.13086e-15 80.3967 29.6674 -5.25142 -13.9331 -6.9006 25.4196 -0.0333494 -5.2055 -0.733625 3.4122e-10 -7.54362e-10 1.67429e-09 5.86319e-10 -1.29544e-09 2.89748e-09 3.41224e-10 -7.54364e-10 1.67429e-09 7.73091 5.47488 0.417314 3.41216e-10 -7.5436e-10 1.6743e-09 2.90554 0.965183 0.102902 3.41222e-10 -7.54363e-10 1.67429e-09 10.2786 0.731801 0.0259123 3.41212e-10 -7.5436e-10 1.6743e-09 2.22167 -0.733487 -0.20892 -6.29135e-14 -3.03744e-13 -3.23025e-15 -73.0867 33.4607 -5.55738 11.2491 -4.93581 -20.1658 0.739885 -23.6632 3.53083 5.05545e-10 7.60121e-11 -2.45052e-09 9.13481e-10 1.79065e-10 -4.22678e-09 5.05542e-10 7.60149e-11 -2.4505e-09 -7.73091 5.47488 -0.417314 5.05545e-10 7.60093e-11 -2.45052e-09 -2.90554 0.965183 -0.102902 5.05539e-10 7.60089e-11 -2.45052e-09 -10.2786 0.731801 -0.0259123 5.05551e-10 7.60089e-11 -2.45053e-09 -2.22167 -0.733487 0.20892 -2.03217e-16 0.0 -3.88251e-19 3.61031 -4.75139 8.17975 0.0116984 9.04933 0.184735 -7.77954 -18.8762 -22.2528 2.03217e-16 0.0 3.88251e-19 5.94761 -2.25921 -0.361686 0.00654878 0.363501 -0.054511 -0.0785548 -1.60869 -4.60123
58.3674 84.9386 -212.341 -0.8971 -3.3786 5.2064 0.304811 -8.07261 -0.914911 0.302147 3.05071 -0.148381 -2.09125 20.433 -11.143 11.2696 -29.6603 -19.3087 -0.0 0.0 0.0 -0.0 0.0 0.0 -5.21208e-14 -2.91933e-13 1.3748e-14 86.2854 31.8323 -5.78717 -14.7127 -7.29773 27.2962 -0.0352084 -5.19991 -0.732925 1.66292e-10 -6.21485e-10 1.64196e-09 2.84316e-10 -1.0663e-09 2.84117e-09 1.66295e-10 -6.21486e-10 1.64195e-09 7.73091 5.47488 0.417314 1.66288e-10 -6.21483e-10 1.64197e-09 2.90554 0.965183 0.102902 1.66292e-10 -6.21485e-10 1.64196e-09 10.2786 0.731801 0.0259123 1.66284e-10 -6.21482e-10 1.64197e-09 2.22167 -0.733487 -0.20892 -5.22368e-14 -2.91933e-13 1.36536e-14 -77.8879 36.0758 -6.14629 11.8775 -5.21213 -21.5318 0.837637 -24.3889 3.66647 3.3584e-10 -1.90822e-10 -2.26092e-09 6.16133e-10 -2.87764e-10 -3.90127e-09 3.35838e-10 -1.9082e-10 -2.2609e-09 -7.73091 5.47488 -0.417314 3.35841e-10 -1.90825e-10 -2.26092e-09 -2.90554 0.965183 -0.102902 3.35835e-10 -1.90825e-10 -2.26092e-09 -10.2786 0.731801 -0.0259123 3.35845e-10 -1.90824e-10 -2.26093e-09 -2.22167 -0.733487 0.20892 -2.03217e-16 0.0 -3.88251e-19 3.62079 -4.51464 8.72538 0.0120087 9.07222 0.187936 -8.83304 -19.9409 -23.9601 2.03217e-16 0.0 3.88251e-19 6.22763 -2.25637 -0.397983 0.00821164 0.510201 -0.0635595 -0.152711 -1.98665 -4.92999
58.3775 84.9401 -212.323 -0.8495 -3.367 5.1907 0.288634 -8.00707 -0.9629 0.331817 2.99265 -0.161798 -2.24582 20.3463 -10.9912 11.3978 -29.6446 -18.9775 -0.0 0.0 0.0 -0.0 0.0 0.0 -3.11525e-14 -2.40451e-13 3.87506e-14 85.6217 31.7414 -5.7957 -14.6765 -7.29438 27.1903 -0.0280464 -4.63364 -0.652695 -1.47125e-10 -3.38629e-10 1.40641e-09 -2.56509e-10 -5.79089e-10 2.43303e-09 -1.47123e-10 -3.38628e-10 1.4064e-09 7.73091 5.47488 0.417314 -1.47129e-10 -3.38625e-10 1.40642e-09 2.90554 0.965183 0.102902 -1.47124e-10 -3.38627e-10 1.40641e-09 10.2786 0.731801 0.0259123 -1.47131e-10 -3.38624e-10 1.40642e-09 2.22167 -0.733487 -0.20892 -3.13053e-14 -2.40448e-13 3.86419e-14 -77.3018 36.2223 -6.1205 11.7589 -5.14894 -21.2828 0.721575 -22.8609 3.40547 6.77861e-12 -5.92685e-10 -1.70716e-09 3.709e-11 -9.95913e-10 -2.94838e-09 6.7765e-12 -5.92683e-10 -1.70714e-09 -7.73091 5.47488 -0.417314 6.7803e-12 -5.92687e-10 -1.70716e-09 -2.90554 0.965183 -0.102902 6.77371e-12 -5.92687e-10 -1.70716e-09 -10.2786 0.731801 -0.0259123 6.78169e-12 -5.92685e-10 -1.70717e-09 -2.22167 -0.733487 0.20892 -2.03217e-16 0.0 -3.88251e-19 3.53426 -4.508 8.59834 0.0117988 9.05181 0.18722 -8.6938 -19.8423 -23.7128 2.03217e-16 0.0 3.88251e-19 6.11035 -2.21541 -0.411485 0.0102746 0.45414 -0.0624676 -0.143688 -1.9218 -4.91492
